<mxfile host="app.diagrams.net" modified="2023-10-25T20:46:40.902Z" agent="Mozilla/5.0 (Windows NT 10.0; Win64; x64) AppleWebKit/537.36 (KHTML, like Gecko) Chrome/118.0.0.0 Safari/537.36 Edg/118.0.2088.61" etag="5dv6SeKd1QGiUYgUVvs5" version="22.0.8" type="device">
  <diagram name="Page-1" id="7Pu4RWDBB-2qea7Z_8P5">
    <mxGraphModel dx="2317" dy="1151" grid="1" gridSize="10" guides="1" tooltips="1" connect="1" arrows="1" fold="1" page="1" pageScale="1" pageWidth="827" pageHeight="1169" math="0" shadow="0">
      <root>
        <mxCell id="0" />
        <mxCell id="1" parent="0" />
        <mxCell id="guYg8NmIGBFBFigAYNym-17" value="Region us-east-1" style="shape=mxgraph.ibm.box;prType=region;fontStyle=0;verticalAlign=top;align=left;spacingLeft=32;spacingTop=4;fillColor=none;rounded=0;whiteSpace=wrap;html=1;strokeColor=#919191;strokeWidth=2;dashed=0;container=1;spacing=-4;collapsible=0;expand=0;recursiveResize=0;" parent="1" vertex="1">
          <mxGeometry y="190" width="820" height="540" as="geometry" />
        </mxCell>
        <mxCell id="guYg8NmIGBFBFigAYNym-1" value="VPC&amp;nbsp;10.10.0.0/16" style="points=[[0,0],[0.25,0],[0.5,0],[0.75,0],[1,0],[1,0.25],[1,0.5],[1,0.75],[1,1],[0.75,1],[0.5,1],[0.25,1],[0,1],[0,0.75],[0,0.5],[0,0.25]];outlineConnect=0;gradientColor=none;html=1;whiteSpace=wrap;fontSize=12;fontStyle=0;container=1;pointerEvents=0;collapsible=0;recursiveResize=0;shape=mxgraph.aws4.group;grIcon=mxgraph.aws4.group_vpc;strokeColor=#248814;fillColor=none;verticalAlign=top;align=left;spacingLeft=30;fontColor=#AAB7B8;dashed=0;" parent="guYg8NmIGBFBFigAYNym-17" vertex="1">
          <mxGeometry x="9" y="70" width="800" height="460" as="geometry" />
        </mxCell>
        <mxCell id="guYg8NmIGBFBFigAYNym-7" value="Public subnet 10.0.16.0/20&lt;br&gt;" style="points=[[0,0],[0.25,0],[0.5,0],[0.75,0],[1,0],[1,0.25],[1,0.5],[1,0.75],[1,1],[0.75,1],[0.5,1],[0.25,1],[0,1],[0,0.75],[0,0.5],[0,0.25]];outlineConnect=0;gradientColor=none;html=1;whiteSpace=wrap;fontSize=12;fontStyle=0;container=1;pointerEvents=0;collapsible=0;recursiveResize=0;shape=mxgraph.aws4.group;grIcon=mxgraph.aws4.group_security_group;grStroke=0;strokeColor=#248814;fillColor=#E9F3E6;verticalAlign=top;align=left;spacingLeft=30;fontColor=#248814;dashed=0;" parent="guYg8NmIGBFBFigAYNym-1" vertex="1">
          <mxGeometry x="510" y="180" width="266" height="260" as="geometry" />
        </mxCell>
        <mxCell id="guYg8NmIGBFBFigAYNym-3" value="Public subnet 10.0.0.0/20" style="points=[[0,0],[0.25,0],[0.5,0],[0.75,0],[1,0],[1,0.25],[1,0.5],[1,0.75],[1,1],[0.75,1],[0.5,1],[0.25,1],[0,1],[0,0.75],[0,0.5],[0,0.25]];outlineConnect=0;gradientColor=none;html=1;whiteSpace=wrap;fontSize=12;fontStyle=0;container=1;pointerEvents=0;collapsible=0;recursiveResize=0;shape=mxgraph.aws4.group;grIcon=mxgraph.aws4.group_security_group;grStroke=0;strokeColor=#248814;fillColor=#E9F3E6;verticalAlign=top;align=left;spacingLeft=30;fontColor=#248814;dashed=0;" parent="guYg8NmIGBFBFigAYNym-1" vertex="1">
          <mxGeometry x="20" y="180" width="266" height="260" as="geometry" />
        </mxCell>
        <mxCell id="guYg8NmIGBFBFigAYNym-15" value="Availability zone" style="sketch=0;outlineConnect=0;gradientColor=none;html=1;whiteSpace=wrap;fontSize=12;fontStyle=0;shape=mxgraph.aws4.group;grIcon=mxgraph.aws4.group_availability_zone;strokeColor=#545B64;fillColor=none;verticalAlign=top;align=left;spacingLeft=30;fontColor=#545B64;dashed=1;" parent="guYg8NmIGBFBFigAYNym-1" vertex="1">
          <mxGeometry x="10" y="140" width="290" height="310" as="geometry" />
        </mxCell>
        <mxCell id="guYg8NmIGBFBFigAYNym-6" value="Security Group&lt;br&gt;allow &lt;b&gt;http &lt;/b&gt;&lt;i style=&quot;&quot;&gt;(0.0.0.0/0)&lt;/i&gt;&lt;br&gt;&lt;b&gt;rdp &lt;/b&gt;and &lt;b&gt;smb&amp;nbsp;&lt;/b&gt;&lt;i&gt;(for my IP only)&lt;/i&gt;" style="fontStyle=0;verticalAlign=top;align=center;spacingTop=-2;fillColor=none;rounded=0;whiteSpace=wrap;html=1;strokeColor=#FF0000;strokeWidth=2;dashed=1;container=1;collapsible=0;expand=0;recursiveResize=0;" parent="guYg8NmIGBFBFigAYNym-1" vertex="1">
          <mxGeometry x="56" y="220" width="200" height="200" as="geometry" />
        </mxCell>
        <mxCell id="guYg8NmIGBFBFigAYNym-5" value="&lt;b&gt;W2022-SVR1&lt;/b&gt;" style="sketch=0;points=[[0,0,0],[0.25,0,0],[0.5,0,0],[0.75,0,0],[1,0,0],[0,1,0],[0.25,1,0],[0.5,1,0],[0.75,1,0],[1,1,0],[0,0.25,0],[0,0.5,0],[0,0.75,0],[1,0.25,0],[1,0.5,0],[1,0.75,0]];outlineConnect=0;fontColor=#232F3E;fillColor=#ED7100;strokeColor=#ffffff;dashed=0;verticalLabelPosition=bottom;verticalAlign=top;align=center;html=1;fontSize=12;fontStyle=0;aspect=fixed;shape=mxgraph.aws4.resourceIcon;resIcon=mxgraph.aws4.ec2;" parent="guYg8NmIGBFBFigAYNym-6" vertex="1">
          <mxGeometry x="61" y="66" width="78" height="78" as="geometry" />
        </mxCell>
        <mxCell id="guYg8NmIGBFBFigAYNym-8" value="Security Group&lt;br&gt;allow&amp;nbsp;&lt;b style=&quot;border-color: var(--border-color);&quot;&gt;http&amp;nbsp;&lt;/b&gt;&lt;i style=&quot;border-color: var(--border-color);&quot;&gt;(0.0.0.0/0)&lt;/i&gt;&lt;br style=&quot;border-color: var(--border-color);&quot;&gt;&lt;b style=&quot;border-color: var(--border-color);&quot;&gt;rdp&amp;nbsp;&lt;/b&gt;and&amp;nbsp;&lt;b style=&quot;border-color: var(--border-color);&quot;&gt;smb&amp;nbsp;&lt;/b&gt;&lt;i style=&quot;border-color: var(--border-color);&quot;&gt;(for my IP only)&lt;/i&gt;" style="fontStyle=0;verticalAlign=top;align=center;spacingTop=-2;fillColor=none;rounded=0;whiteSpace=wrap;html=1;strokeColor=#FF0000;strokeWidth=2;dashed=1;container=1;collapsible=0;expand=0;recursiveResize=0;" parent="guYg8NmIGBFBFigAYNym-1" vertex="1">
          <mxGeometry x="546" y="220" width="200" height="200" as="geometry" />
        </mxCell>
        <mxCell id="guYg8NmIGBFBFigAYNym-9" value="W2022-SVR2" style="sketch=0;points=[[0,0,0],[0.25,0,0],[0.5,0,0],[0.75,0,0],[1,0,0],[0,1,0],[0.25,1,0],[0.5,1,0],[0.75,1,0],[1,1,0],[0,0.25,0],[0,0.5,0],[0,0.75,0],[1,0.25,0],[1,0.5,0],[1,0.75,0]];outlineConnect=0;fontColor=#232F3E;fillColor=#ED7100;strokeColor=#ffffff;dashed=0;verticalLabelPosition=bottom;verticalAlign=top;align=center;html=1;fontSize=12;fontStyle=1;aspect=fixed;shape=mxgraph.aws4.resourceIcon;resIcon=mxgraph.aws4.ec2;" parent="guYg8NmIGBFBFigAYNym-8" vertex="1">
          <mxGeometry x="105" y="61" width="78" height="78" as="geometry" />
        </mxCell>
        <mxCell id="guYg8NmIGBFBFigAYNym-21" value="W2022-SVR3" style="sketch=0;points=[[0,0,0],[0.25,0,0],[0.5,0,0],[0.75,0,0],[1,0,0],[0,1,0],[0.25,1,0],[0.5,1,0],[0.75,1,0],[1,1,0],[0,0.25,0],[0,0.5,0],[0,0.75,0],[1,0.25,0],[1,0.5,0],[1,0.75,0]];outlineConnect=0;fontColor=#232F3E;fillColor=#ED7100;strokeColor=#ffffff;dashed=0;verticalLabelPosition=bottom;verticalAlign=top;align=center;html=1;fontSize=12;fontStyle=1;aspect=fixed;shape=mxgraph.aws4.resourceIcon;resIcon=mxgraph.aws4.ec2;" parent="guYg8NmIGBFBFigAYNym-8" vertex="1">
          <mxGeometry x="15" y="90" width="78" height="78" as="geometry" />
        </mxCell>
        <mxCell id="guYg8NmIGBFBFigAYNym-16" value="Availability zone" style="sketch=0;outlineConnect=0;gradientColor=none;html=1;whiteSpace=wrap;fontSize=12;fontStyle=0;shape=mxgraph.aws4.group;grIcon=mxgraph.aws4.group_availability_zone;strokeColor=#545B64;fillColor=none;verticalAlign=top;align=left;spacingLeft=30;fontColor=#545B64;dashed=1;" parent="guYg8NmIGBFBFigAYNym-1" vertex="1">
          <mxGeometry x="498" y="140" width="290" height="310" as="geometry" />
        </mxCell>
        <mxCell id="guYg8NmIGBFBFigAYNym-11" style="edgeStyle=orthogonalEdgeStyle;rounded=0;orthogonalLoop=1;jettySize=auto;html=1;" parent="guYg8NmIGBFBFigAYNym-17" source="guYg8NmIGBFBFigAYNym-2" target="guYg8NmIGBFBFigAYNym-10" edge="1">
          <mxGeometry relative="1" as="geometry" />
        </mxCell>
        <mxCell id="guYg8NmIGBFBFigAYNym-2" value="" style="sketch=0;outlineConnect=0;fontColor=#232F3E;gradientColor=none;fillColor=#8C4FFF;strokeColor=none;dashed=0;verticalLabelPosition=bottom;verticalAlign=top;align=center;html=1;fontSize=12;fontStyle=0;aspect=fixed;pointerEvents=1;shape=mxgraph.aws4.internet_gateway;" parent="guYg8NmIGBFBFigAYNym-17" vertex="1">
          <mxGeometry x="359" y="30" width="78" height="78" as="geometry" />
        </mxCell>
        <mxCell id="guYg8NmIGBFBFigAYNym-10" value="" style="sketch=0;outlineConnect=0;fontColor=#232F3E;gradientColor=none;fillColor=#8C4FFF;strokeColor=none;dashed=0;verticalLabelPosition=bottom;verticalAlign=top;align=center;html=1;fontSize=12;fontStyle=0;aspect=fixed;pointerEvents=1;shape=mxgraph.aws4.application_load_balancer;" parent="guYg8NmIGBFBFigAYNym-17" vertex="1">
          <mxGeometry x="359" y="130" width="78" height="78" as="geometry" />
        </mxCell>
        <mxCell id="guYg8NmIGBFBFigAYNym-12" style="edgeStyle=orthogonalEdgeStyle;rounded=0;orthogonalLoop=1;jettySize=auto;html=1;" parent="guYg8NmIGBFBFigAYNym-17" source="guYg8NmIGBFBFigAYNym-10" target="guYg8NmIGBFBFigAYNym-3" edge="1">
          <mxGeometry relative="1" as="geometry" />
        </mxCell>
        <mxCell id="guYg8NmIGBFBFigAYNym-14" style="edgeStyle=orthogonalEdgeStyle;rounded=0;orthogonalLoop=1;jettySize=auto;html=1;" parent="guYg8NmIGBFBFigAYNym-17" source="guYg8NmIGBFBFigAYNym-10" target="guYg8NmIGBFBFigAYNym-7" edge="1">
          <mxGeometry relative="1" as="geometry" />
        </mxCell>
        <mxCell id="guYg8NmIGBFBFigAYNym-20" style="edgeStyle=orthogonalEdgeStyle;rounded=0;orthogonalLoop=1;jettySize=auto;html=1;" parent="1" source="guYg8NmIGBFBFigAYNym-19" target="guYg8NmIGBFBFigAYNym-2" edge="1">
          <mxGeometry relative="1" as="geometry" />
        </mxCell>
        <mxCell id="guYg8NmIGBFBFigAYNym-23" value="&lt;b&gt;http://gr-applb-1-1863630413.us-east-1.elb.amazonaws.com/&lt;/b&gt;" style="edgeLabel;html=1;align=center;verticalAlign=middle;resizable=0;points=[];" parent="guYg8NmIGBFBFigAYNym-20" vertex="1" connectable="0">
          <mxGeometry x="-0.2593" relative="1" as="geometry">
            <mxPoint as="offset" />
          </mxGeometry>
        </mxCell>
        <mxCell id="guYg8NmIGBFBFigAYNym-19" value="" style="sketch=0;outlineConnect=0;fontColor=#232F3E;gradientColor=none;fillColor=#232F3D;strokeColor=none;dashed=0;verticalLabelPosition=bottom;verticalAlign=top;align=center;html=1;fontSize=12;fontStyle=0;aspect=fixed;pointerEvents=1;shape=mxgraph.aws4.user;" parent="1" vertex="1">
          <mxGeometry x="359" y="50" width="78" height="78" as="geometry" />
        </mxCell>
      </root>
    </mxGraphModel>
  </diagram>
</mxfile>
